<svg width="40" height="31" viewBox="0 0 40 31" fill="none" xmlns="http://www.w3.org/2000/svg">
<path fill-rule="evenodd" clip-rule="evenodd" d="M0 2.21429C0 0.991369 0.994923 0 2.22222 0H37.7778C39.0051 0 40 0.991369 40 2.21429C40 3.4372 39.0051 4.42857 37.7778 4.42857H2.22222C0.994923 4.42857 0 3.4372 0 2.21429ZM0 15.5C0 14.2771 0.994923 13.2857 2.22222 13.2857H37.7778C39.0051 13.2857 40 14.2771 40 15.5C40 16.7229 39.0051 17.7143 37.7778 17.7143H2.22222C0.994923 17.7143 0 16.7229 0 15.5ZM20 28.7857C20 27.5628 20.9949 26.5714 22.2222 26.5714H37.7778C39.0051 26.5714 40 27.5628 40 28.7857C40 30.0086 39.0051 31 37.7778 31H22.2222C20.9949 31 20 30.0086 20 28.7857Z" fill="white"/>
</svg>
