<svg width="40" height="39" viewBox="0 0 40 39" fill="none" xmlns="http://www.w3.org/2000/svg">
<path d="M24.6955 19.4972L39.015 5.56621C39.642 4.95473 39.9943 4.12538 39.9943 3.26061C39.9943 2.39584 39.642 1.56649 39.015 0.955011C38.3879 0.343528 37.5374 0 36.6506 0C35.7638 0 34.9133 0.343528 34.2862 0.955011L20 14.9185L5.71381 0.955011C5.08673 0.343528 4.23624 -6.44293e-09 3.34942 0C2.46261 6.44312e-09 1.61212 0.343528 0.985042 0.955011C0.357969 1.56649 0.00568318 2.39584 0.00568317 3.26061C0.00568317 4.12538 0.357969 4.95473 0.985042 5.56621L15.3045 19.4972L0.985042 33.4282C0.672916 33.7301 0.425175 34.0893 0.25611 34.485C0.0870441 34.8807 0 35.3052 0 35.7338C0 36.1625 0.0870441 36.587 0.25611 36.9827C0.425175 37.3784 0.672916 37.7376 0.985042 38.0394C1.29462 38.3438 1.66293 38.5854 2.06874 38.7503C2.47454 38.9151 2.90981 39 3.34942 39C3.78904 39 4.2243 38.9151 4.63011 38.7503C5.03591 38.5854 5.40423 38.3438 5.71381 38.0394L20 24.076L34.2862 38.0394C34.5958 38.3438 34.9641 38.5854 35.3699 38.7503C35.7757 38.9151 36.211 39 36.6506 39C37.0902 39 37.5255 38.9151 37.9313 38.7503C38.3371 38.5854 38.7054 38.3438 39.015 38.0394C39.3271 37.7376 39.5748 37.3784 39.7439 36.9827C39.913 36.587 40 36.1625 40 35.7338C40 35.3052 39.913 34.8807 39.7439 34.485C39.5748 34.0893 39.3271 33.7301 39.015 33.4282L24.6955 19.4972Z" fill="white"/>
</svg>
