<svg width="18" height="16" viewBox="0 0 18 16" fill="none" xmlns="http://www.w3.org/2000/svg">
<path d="M17.0687 0.303823C16.8936 -0.0867494 16.3936 -0.102372 16.1842 0.266328C15.2154 1.95048 13.4808 3.00034 11.4994 3.00034H8.99914C5.68633 3.00034 2.99858 5.68748 2.99858 8.99953C2.99858 9.21825 3.02358 9.4276 3.04545 9.64007C5.03939 8.21214 7.91779 6.9998 11.9994 6.9998C12.2745 6.9998 12.4995 7.22477 12.4995 7.49973C12.4995 7.7747 12.2745 7.99967 11.9994 7.99967C4.14243 7.99967 0.810867 12.8146 0.0732972 14.6238C-0.132972 15.1331 0.110801 15.7143 0.620224 15.9236C1.13277 16.1361 1.71408 15.8892 1.9266 15.383C1.97348 15.2706 2.57979 13.8864 4.17369 12.5522C5.18628 13.9239 7.11147 15.2331 9.63983 14.9644C14.5465 14.6082 18 10.2087 18 4.82197C18 3.25343 17.6625 1.62865 17.0687 0.303823Z" fill="#37663F"/>
</svg>
