<svg width="38" height="50" viewBox="0 0 38 50" fill="none" xmlns="http://www.w3.org/2000/svg">
<path d="M22.9802 42.9793C22.194 45.2453 21.3142 46.5756 21.3142 46.5756C24.701 45.5093 30.9204 38.1716 30.9204 32.9033C30.7966 20.9236 24.2993 17.7248 20.2054 12.7704C16.1114 7.816 21.3142 0.038269 21.3142 0.038269C18.2686 2.94814 16.4254 5.65414 15.6622 8.05947C14.8068 10.7523 14.6801 14.2723 15.835 16.8463C17.9302 21.522 20.2658 22.2656 22.2055 26.6817C24.2532 28.9521 25.5031 31.9808 25.5031 35.3057C25.5017 38.1877 24.5614 40.8439 22.9802 42.9793Z" fill="#F27233"/>
<path d="M17.4145 46.8264C14.1155 46.8264 11.4414 44.1028 11.4414 40.7427C11.4414 37.3825 14.1155 34.6589 17.4145 34.6589C20.7135 34.6589 23.3876 37.3825 23.3876 40.7427C23.3876 41.5449 23.2335 42.3105 22.9556 43.0131C22.9643 43.0028 22.9715 42.9911 22.9787 42.9793C24.5612 40.8439 25.5001 38.1877 25.5001 35.3072C25.5001 31.9808 24.2502 28.9536 22.2025 26.6832C19.9143 24.1459 16.6297 22.5545 12.9793 22.5545C6.06442 22.5545 0.458496 28.2643 0.458496 35.3072C0.458496 42.3501 6.06442 48.0599 12.9793 48.0599C14.9967 48.0599 16.9004 47.5715 18.5881 46.7076C18.2094 46.7853 17.8163 46.8264 17.4145 46.8264Z" fill="#F8CB3C"/>
<path d="M4.09173 23.4624C5.75071 23.4624 7.09557 22.0926 7.09557 20.4029C7.09557 18.7132 5.75071 17.3435 4.09173 17.3435C2.43276 17.3435 1.08789 18.7132 1.08789 20.4029C1.08789 22.0926 2.43276 23.4624 4.09173 23.4624Z" fill="#F27233"/>
<path d="M29.0309 17.342C30.6899 17.342 32.0348 15.9722 32.0348 14.2826C32.0348 12.5929 30.6899 11.2231 29.0309 11.2231C27.372 11.2231 26.0271 12.5929 26.0271 14.2826C26.0271 15.9722 27.372 17.342 29.0309 17.342Z" fill="#5BB949"/>
<path d="M30.9204 21.8637C30.9204 21.8637 34.8617 26.0657 32.8299 32.5264C32.8299 32.5264 41.6355 21.5499 35.1699 11.7657C35.1699 11.7657 35.2001 19.3865 30.9204 21.8637Z" fill="#61C6F2"/>
</svg>
