<svg width="38" height="50" viewBox="0 0 38 50" fill="none" xmlns="http://www.w3.org/2000/svg">
<path d="M22.9801 42.9793C22.1939 45.2453 21.314 46.5756 21.314 46.5756C24.7009 45.5093 30.9203 38.1716 30.9203 32.9033C30.7964 20.9236 24.2992 17.7248 20.2052 12.7704C16.1113 7.816 21.314 0.038269 21.314 0.038269C18.2684 2.94814 16.4252 5.65414 15.662 8.05947C14.8067 10.7523 14.68 14.2723 15.8348 16.8463C17.93 21.522 20.2657 22.2656 22.2054 26.6817C24.2531 28.9521 25.503 31.9808 25.503 35.3057C25.5016 38.1877 24.5612 40.8439 22.9801 42.9793Z" fill="white"/>
<path d="M17.4146 46.8264C14.1155 46.8264 11.4414 44.1028 11.4414 40.7427C11.4414 37.3825 14.1155 34.6589 17.4146 34.6589C20.7136 34.6589 23.3877 37.3825 23.3877 40.7427C23.3877 41.5449 23.2336 42.3105 22.9557 43.0131C22.9643 43.0028 22.9715 42.9911 22.9787 42.9793C24.5613 40.8439 25.5002 38.1877 25.5002 35.3072C25.5002 31.9808 24.2502 28.9536 22.2026 26.6832C19.9144 24.1459 16.6298 22.5545 12.9794 22.5545C6.06448 22.5545 0.458557 28.2643 0.458557 35.3072C0.458557 42.3501 6.06448 48.0599 12.9794 48.0599C14.9968 48.0599 16.9005 47.5715 18.5882 46.7076C18.2094 46.7853 17.8163 46.8264 17.4146 46.8264Z" fill="white"/>
<path d="M4.09167 23.4624C5.75064 23.4624 7.09551 22.0926 7.09551 20.4029C7.09551 18.7132 5.75064 17.3435 4.09167 17.3435C2.43269 17.3435 1.08783 18.7132 1.08783 20.4029C1.08783 22.0926 2.43269 23.4624 4.09167 23.4624Z" fill="white"/>
<path d="M29.0311 17.342C30.69 17.342 32.0349 15.9722 32.0349 14.2826C32.0349 12.5929 30.69 11.2231 29.0311 11.2231C27.3721 11.2231 26.0272 12.5929 26.0272 14.2826C26.0272 15.9722 27.3721 17.342 29.0311 17.342Z" fill="white"/>
<path d="M30.9203 21.8637C30.9203 21.8637 34.8616 26.0657 32.8297 32.5264C32.8297 32.5264 41.6353 21.5499 35.1697 11.7657C35.1697 11.7657 35.2 19.3865 30.9203 21.8637Z" fill="white"/>
</svg>
